<svg width="292" height="292" viewBox="0 0 292 292" fill="none" xmlns="http://www.w3.org/2000/svg">
<path d="M67.8555 164.062C72.931 164.062 77.2309 162.286 80.7552 158.733C84.2795 155.18 86.0417 150.866 86.0417 145.79C86.0417 140.715 84.2652 136.415 80.7122 132.891C77.1594 129.366 72.8452 127.604 67.7695 127.604C62.694 127.604 58.3941 129.381 54.8698 132.934C51.3455 136.486 49.5833 140.801 49.5833 145.876C49.5833 150.952 51.3598 155.252 54.9128 158.776C58.4656 162.3 62.7798 164.062 67.8555 164.062ZM145.876 164.062C150.952 164.062 155.252 162.286 158.776 158.733C162.3 155.18 164.062 150.866 164.062 145.79C164.062 140.715 162.286 136.415 158.733 132.891C155.18 129.366 150.866 127.604 145.79 127.604C140.715 127.604 136.415 129.381 132.891 132.934C129.366 136.486 127.604 140.801 127.604 145.876C127.604 150.952 129.381 155.252 132.934 158.776C136.486 162.3 140.801 164.062 145.876 164.062ZM223.533 164.062C228.608 164.062 232.908 162.286 236.432 158.733C239.957 155.18 241.719 150.866 241.719 145.79C241.719 140.715 239.942 136.415 236.389 132.891C232.837 129.366 228.522 127.604 223.447 127.604C218.371 127.604 214.071 129.381 210.547 132.934C207.023 136.486 205.26 140.801 205.26 145.876C205.26 150.952 207.037 155.252 210.59 158.776C214.143 162.3 218.457 164.062 223.533 164.062ZM145.93 291.667C125.821 291.667 106.924 287.839 89.2376 280.182C71.5514 272.526 56.0851 262.075 42.8385 248.828C29.592 235.582 19.1406 220.106 11.4844 202.402C3.82812 184.698 0 165.781 0 145.651C0 125.521 3.82812 106.605 11.4844 88.9004C19.1406 71.196 29.592 55.7812 42.8385 42.6562C56.0851 29.5312 71.5605 19.1406 89.2649 11.4844C106.969 3.82812 125.886 0 146.016 0C166.145 0 185.062 3.82812 202.766 11.4844C220.471 19.1406 235.885 29.5312 249.01 42.6562C262.135 55.7812 272.526 71.2153 280.182 88.9583C287.839 106.701 291.667 125.627 291.667 145.736C291.667 165.845 287.839 184.743 280.182 202.429C272.526 220.115 262.135 235.559 249.01 248.761C235.885 261.963 220.451 272.414 202.708 280.115C184.965 287.816 166.039 291.667 145.93 291.667ZM146.016 269.792C180.408 269.792 209.635 257.7 233.698 233.516C257.76 209.332 269.792 180.043 269.792 145.651C269.792 111.259 257.783 82.0312 233.766 57.9687C209.749 33.9062 180.438 21.875 145.833 21.875C111.562 21.875 82.3351 33.8834 58.151 57.9002C33.967 81.9173 21.875 111.228 21.875 145.833C21.875 180.104 33.967 209.332 58.151 233.516C82.3351 257.7 111.623 269.792 146.016 269.792Z" fill="#FFD07E"/>
</svg>
