<svg width="341" height="48" viewBox="0 0 341 48" fill="none" xmlns="http://www.w3.org/2000/svg">
<path d="M0 47.5417V27.1667C7.95278 26.4875 14.7694 24.6764 20.45 21.7333C26.1306 18.7903 31.8111 15.6774 37.4917 12.3948C43.1722 9.11215 49.5628 6.22569 56.6635 3.73542C63.7642 1.24514 72.5691 0 83.0781 0C93.5872 0 102.534 1.41493 109.919 4.24479C117.303 7.07465 124.049 10.1875 130.156 13.5833C136.262 16.9792 142.44 20.092 148.689 22.9219C154.937 25.7517 162.18 27.1667 170.417 27.1667C178.653 27.1667 185.896 25.7517 192.145 22.9219C198.393 20.092 204.571 16.9792 210.678 13.5833C216.784 10.1875 223.53 7.07465 230.915 4.24479C238.299 1.41493 247.246 0 257.755 0C268.264 0 276.998 1.24514 283.957 3.73542C290.915 6.22569 297.306 9.11215 303.129 12.3948C308.951 15.6774 314.703 18.7903 320.383 21.7333C326.064 24.6764 332.881 26.4875 340.833 27.1667V47.5417C330.892 47.0889 322.585 45.4476 315.91 42.6177C309.235 39.7878 302.987 36.7316 297.164 33.449C291.342 30.1663 285.448 27.1667 279.483 24.45C273.519 21.7333 266.276 20.375 257.755 20.375C249.234 20.375 241.779 21.7899 235.388 24.6198C228.997 27.4497 222.749 30.5625 216.642 33.9583C210.536 37.3542 203.861 40.467 196.618 43.2969C189.376 46.1267 180.642 47.5417 170.417 47.5417C160.192 47.5417 151.458 46.1267 144.215 43.2969C136.972 40.467 130.298 37.3542 124.191 33.9583C118.085 30.5625 111.836 27.4497 105.445 24.6198C99.0547 21.7899 91.599 20.375 83.0781 20.375C74.5573 20.375 67.2436 21.7333 61.137 24.45C55.0304 27.1667 49.1368 30.1663 43.4563 33.449C37.7757 36.7316 31.5981 39.7878 24.9234 42.6177C18.2488 45.4476 9.94097 47.0889 0 47.5417Z" fill="#22243D"/>
</svg>
